<!DOCTYPE svg PUBLIC "-//W3C//DTD SVG 1.1//EN" "http://www.w3.org/Graphics/SVG/1.1/DTD/svg11.dtd">
<!-- Uploaded to: SVG Repo, www.svgrepo.com, Transformed by: SVG Repo Mixer Tools -->
<svg fill="#e9ede9" height="64px" width="64px" version="1.1" id="Layer_1" xmlns="http://www.w3.org/2000/svg" xmlns:xlink="http://www.w3.org/1999/xlink" viewBox="0 0 512 512" xml:space="preserve" stroke="#e9ede9" transform="matrix(-1, 0, 0, 1, 0, 0)">
<g id="SVGRepo_bgCarrier" stroke-width="0"/>
<g id="SVGRepo_tracerCarrier" stroke-linecap="round" stroke-linejoin="round" stroke="#CCCCCC" stroke-width="1.024"/>
<g id="SVGRepo_iconCarrier"> <g> <g> <path d="M278.718,0C150.086,0,45.435,104.65,45.435,233.282c0,55.642,19.592,106.789,52.228,146.928L0,477.872L34.128,512 l97.663-97.663c40.137,32.635,91.284,52.228,146.926,52.228C407.35,466.565,512,361.914,512,233.282S407.35,0,278.718,0z M278.718,418.299c-102.018,0-185.017-82.999-185.017-185.017S176.699,48.265,278.718,48.265s185.017,82.999,185.017,185.017 S380.736,418.299,278.718,418.299z"/> </g> </g> </g>
</svg>